<svg xmlns="http://www.w3.org/2000/svg" width="48" height="48" fill="none"><rect width="48" height="48" fill="#007BFF" rx="10"/><path fill="#fff" fill-rule="evenodd" d="M17.472 29.142H29.14v-3.429H18.515a3.086 3.086 0 0 1-3.084-3.086v-4.112a3.087 3.087 0 0 1 3.084-3.084H29.14V12H17.47a3.09 3.09 0 0 0-2.18.895l-2.387 2.387a3.09 3.09 0 0 0-.904 2.19v6.199c-.002.816.32 1.6.895 2.18l2.387 2.387a3.089 3.089 0 0 0 2.19.904Zm13.06-10.28h-11.67v3.423h10.626a3.086 3.086 0 0 1 3.087 3.087v4.11a3.087 3.087 0 0 1-3.087 3.087H18.862V36h11.665c.818 0 1.603-.325 2.182-.904l2.387-2.387A3.087 3.087 0 0 0 36 30.526v-6.198c0-.82-.325-1.604-.904-2.183l-2.387-2.387a3.086 3.086 0 0 0-2.177-.895Z" clip-rule="evenodd"/></svg>