<svg width="60" height="60" viewBox="0 0 60 60" fill="none" xmlns="http://www.w3.org/2000/svg">
<g clip-path="url(#clip0_2903_162)">
<path fill-rule="evenodd" clip-rule="evenodd" d="M30.9429 0C31.2612 0 31.5664 0.126428 31.7914 0.351472C32.0165 0.576516 32.1429 0.88174 32.1429 1.2V12.8025C32.1429 14.1213 33.9615 14.475 34.4556 13.2519L38.8017 2.4945C38.8607 2.34837 38.948 2.2153 39.0585 2.10289C39.1689 1.99048 39.3005 1.90093 39.4456 1.83936C39.5907 1.7778 39.7464 1.74541 39.9041 1.74406C40.0617 1.74272 40.218 1.77243 40.3641 1.8315L42.1125 2.5377C42.4076 2.65694 42.6432 2.8885 42.7675 3.18145C42.8918 3.47439 42.8947 3.80473 42.7755 4.0998L38.142 15.5685C37.6521 16.7805 39.1785 17.7909 40.1031 16.8666L48.8493 8.1201C48.9607 8.00866 49.093 7.92027 49.2386 7.85996C49.3842 7.79965 49.5403 7.76861 49.6979 7.76861C49.8554 7.76861 50.0115 7.79965 50.1571 7.85996C50.3027 7.92027 50.435 8.00866 50.5464 8.1201L51.8799 9.4536C52.1049 9.67863 52.2312 9.9838 52.2312 10.302C52.2312 10.6202 52.1049 10.9254 51.8799 11.1504L44.0256 19.005C43.0881 19.9428 44.1396 21.4842 45.3546 20.9532L55.533 16.506C55.8246 16.3786 56.1549 16.3722 56.4512 16.4882C56.7475 16.6043 56.9856 16.8333 57.1131 17.1249L57.8682 18.8529C57.9313 18.9973 57.9653 19.1527 57.9684 19.3103C57.9714 19.4679 57.9434 19.6245 57.8859 19.7712C57.8284 19.9179 57.7425 20.0519 57.6333 20.1654C57.524 20.279 57.3934 20.3699 57.249 20.433L45.5202 25.5576C44.3286 26.0781 44.7003 27.8571 46.0005 27.8571H58.8C59.1183 27.8571 59.4235 27.9835 59.6485 28.2086C59.8736 28.4336 60 28.7388 60 29.0571V30.9429C60 31.2612 59.8736 31.5664 59.6485 31.7914C59.4235 32.0165 59.1183 32.1429 58.8 32.1429H46.0008C44.7003 32.1429 44.3289 33.9219 45.5202 34.4424L57.249 39.567C57.5406 39.6944 57.7696 39.9324 57.8857 40.2287C58.0018 40.5249 57.9955 40.8552 57.8682 41.1468L57.1131 42.8748C57.05 43.0192 56.9591 43.1498 56.8456 43.2591C56.732 43.3684 56.5981 43.4543 56.4513 43.5118C56.3046 43.5693 56.148 43.5973 55.9904 43.5943C55.8328 43.5912 55.6774 43.5571 55.533 43.494L45.3546 39.0471C44.1396 38.5161 43.0881 40.0575 44.0256 40.9953L51.8799 48.8493C51.9913 48.9607 52.0797 49.093 52.14 49.2386C52.2004 49.3842 52.2314 49.5403 52.2314 49.6979C52.2314 49.8554 52.2004 50.0115 52.14 50.1571C52.0797 50.3027 51.9913 50.435 51.8799 50.5464L50.5464 51.8799C50.435 51.9913 50.3027 52.0797 50.1571 52.14C50.0115 52.2004 49.8554 52.2314 49.6979 52.2314C49.5403 52.2314 49.3842 52.2004 49.2386 52.14C49.093 52.0797 48.9607 51.9913 48.8493 51.8799L40.1031 43.1334C39.1785 42.2091 37.6521 43.2195 38.142 44.4315L42.7755 55.9002C42.8947 56.1953 42.8918 56.5256 42.7675 56.8186C42.6432 57.1115 42.4076 57.3431 42.1125 57.4623L40.3641 58.1688C40.069 58.288 39.7385 58.2851 39.4455 58.1607C39.1525 58.0363 38.9209 57.8006 38.8017 57.5055L34.4556 46.7481C33.9615 45.525 32.1429 45.8787 32.1429 47.1975V58.8C32.1429 59.1183 32.0165 59.4235 31.7914 59.6485C31.5664 59.8736 31.2612 60 30.9429 60H29.0571C28.7388 60 28.4336 59.8736 28.2086 59.6485C27.9835 59.4235 27.8571 59.1183 27.8571 58.8V47.1975C27.8571 45.8787 26.0385 45.525 25.5444 46.7481L21.1983 57.5055C21.1393 57.6517 21.0521 57.7848 20.9416 57.8972C20.8311 58.0096 20.6996 58.0992 20.5545 58.1608C20.4094 58.2224 20.2536 58.2548 20.096 58.2562C19.9384 58.2576 19.782 58.2279 19.6359 58.1688L17.8875 57.4623C17.5924 57.3431 17.3568 57.1115 17.2325 56.8186C17.1082 56.5256 17.1053 56.1953 17.2245 55.9002L21.8583 44.4315C22.3479 43.2195 20.8215 42.2091 19.8969 43.1334L11.151 51.8799C11.0396 51.9913 10.9073 52.0797 10.7617 52.14C10.6161 52.2004 10.46 52.2314 10.3025 52.2314C10.1449 52.2314 9.98881 52.2004 9.84322 52.14C9.69762 52.0797 9.56533 51.9913 9.4539 51.8799L8.1204 50.5464C8.00896 50.435 7.92057 50.3027 7.86026 50.1571C7.79995 50.0115 7.76891 49.8554 7.76891 49.6979C7.76891 49.5403 7.79995 49.3842 7.86026 49.2386C7.92057 49.093 8.00896 48.9607 8.1204 48.8493L15.9744 40.995C16.9122 40.0575 15.8607 38.5161 14.6457 39.0471L4.467 43.494C4.3226 43.5571 4.16717 43.5912 4.0096 43.5943C3.85203 43.5973 3.6954 43.5693 3.54866 43.5118C3.40192 43.4543 3.26795 43.3684 3.15441 43.2591C3.04086 43.1498 2.94996 43.0192 2.8869 42.8748L2.1318 41.1468C2.06871 41.0024 2.03468 40.847 2.03165 40.6895C2.02863 40.5319 2.05666 40.3753 2.11416 40.2286C2.17166 40.0819 2.2575 39.948 2.36677 39.8345C2.47604 39.721 2.6066 39.6301 2.751 39.567L14.4798 34.4424C15.6711 33.9219 15.2997 32.1429 13.9992 32.1429H1.2C0.88174 32.1429 0.576516 32.0165 0.351472 31.7914C0.126428 31.5664 0 31.2612 0 30.9429V29.0571C0 28.7388 0.126428 28.4336 0.351472 28.2086C0.576516 27.9835 0.88174 27.8571 1.2 27.8571H13.9992C15.2997 27.8571 15.6714 26.0781 14.4798 25.5576L2.751 20.433C2.60659 20.3699 2.47602 20.279 2.36675 20.1654C2.25748 20.0519 2.17164 19.9179 2.11414 19.7712C2.05664 19.6245 2.02861 19.4679 2.03164 19.3103C2.03467 19.1527 2.0687 18.9973 2.1318 18.8529L2.8869 17.1249C3.01437 16.8333 3.25246 16.6043 3.54878 16.4882C3.8451 16.3722 4.17539 16.3786 4.467 16.506L14.6454 20.9529C15.8604 21.4839 16.9119 19.9425 15.9744 19.0047L8.1201 11.151C8.00866 11.0396 7.92027 10.9073 7.85996 10.7617C7.79965 10.6161 7.76861 10.46 7.76861 10.3025C7.76861 10.1449 7.79965 9.98881 7.85996 9.84322C7.92027 9.69762 8.00866 9.56533 8.1201 9.4539L9.4536 8.1204C9.56503 8.00896 9.69732 7.92057 9.84292 7.86026C9.98851 7.79995 10.1446 7.76891 10.3022 7.76891C10.4597 7.76891 10.6158 7.79995 10.7614 7.86026C10.907 7.92057 11.0393 8.00896 11.1507 8.1204L19.8969 16.8669C20.8215 17.7912 22.3479 16.7808 21.8583 15.5688L17.2245 4.0998C17.1053 3.80473 17.1082 3.47439 17.2325 3.18145C17.3568 2.8885 17.5924 2.65694 17.8875 2.5377L19.6359 1.8312C19.931 1.71199 20.2613 1.71487 20.5543 1.8392C20.8472 1.96354 21.0788 2.19914 21.198 2.4942L25.5444 13.2522C26.0385 14.475 27.8574 14.1213 27.8574 12.8022V1.2C27.8574 0.88174 27.9838 0.576516 28.2089 0.351472C28.4339 0.126428 28.7391 0 29.0574 0L30.9429 0ZM30 42.8571C37.1007 42.8571 42.8571 37.1007 42.8571 30C42.8571 22.899 37.1007 17.1429 30 17.1429C22.899 17.1429 17.1429 22.8993 17.1429 30C17.1429 37.1007 22.899 42.8571 30 42.8571Z" fill="url(#paint0_linear_2903_162)"/>
</g>
<defs>
<linearGradient id="paint0_linear_2903_162" x1="8.25" y1="5.7" x2="44.7" y2="52.35" gradientUnits="userSpaceOnUse">
<stop stop-color="#007BFF"/>
<stop offset="0.552084" stop-color="#6CA6FF"/>
<stop offset="1" stop-color="#94C1FF"/>
</linearGradient>
<clipPath id="clip0_2903_162">
<rect width="60" height="60" fill="white"/>
</clipPath>
</defs>
</svg>
