<svg width="60" height="60" viewBox="0 0 60 60" fill="none" xmlns="http://www.w3.org/2000/svg">
<g clip-path="url(#clip0_2903_147)">
<path fill-rule="evenodd" clip-rule="evenodd" d="M32.1429 1.2C32.1429 0.88174 32.0165 0.576516 31.7914 0.351472C31.5664 0.126428 31.2612 0 30.9429 0L29.0571 0C28.7388 0 28.4336 0.126428 28.2086 0.351472C27.9835 0.576516 27.8571 0.88174 27.8571 1.2V12.8025C27.8571 14.1213 26.0385 14.475 25.5444 13.2519L21.1983 2.4945C21.1393 2.34837 21.052 2.2153 20.9415 2.10289C20.8311 1.99048 20.6995 1.90093 20.5544 1.83936C20.4093 1.7778 20.2536 1.74541 20.0959 1.74406C19.9383 1.74272 19.782 1.77243 19.6359 1.8315L17.8875 2.5377C17.5924 2.65694 17.3568 2.8885 17.2325 3.18145C17.1082 3.47439 17.1053 3.80473 17.2245 4.0998L21.8583 15.5685C22.3479 16.7805 20.8212 17.7909 19.8969 16.8666L11.151 8.1201C11.0396 8.00866 10.9073 7.92027 10.7617 7.85996C10.6161 7.79965 10.46 7.76861 10.3025 7.76861C10.1449 7.76861 9.98881 7.79965 9.84322 7.85996C9.69762 7.92027 9.56533 8.00866 9.4539 8.1201L8.1204 9.4536C8.00896 9.56503 7.92057 9.69732 7.86026 9.84292C7.79995 9.98851 7.76891 10.1446 7.76891 10.3022C7.76891 10.4597 7.79995 10.6158 7.86026 10.7614C7.92057 10.907 8.00896 11.0393 8.1204 11.1507L15.9744 19.0047C16.9122 19.9425 15.8607 21.4839 14.6457 20.9529L4.467 16.506C4.17539 16.3786 3.8451 16.3722 3.54878 16.4882C3.25246 16.6043 3.01437 16.8333 2.8869 17.1249L2.1318 18.8529C2.0687 18.9973 2.03467 19.1527 2.03164 19.3103C2.02861 19.4679 2.05664 19.6245 2.11414 19.7712C2.17164 19.9179 2.25748 20.0519 2.36675 20.1654C2.47602 20.279 2.60659 20.3699 2.751 20.433L14.4798 25.5576C15.6714 26.0781 15.2997 27.8571 13.9992 27.8571H1.2C0.88174 27.8571 0.576516 27.9835 0.351472 28.2086C0.126428 28.4336 0 28.7388 0 29.0571L0 30.9429C0 31.2612 0.126428 31.5664 0.351472 31.7914C0.576516 32.0165 0.88174 32.1429 1.2 32.1429H13.9992C15.2994 32.1429 15.6711 33.9219 14.4798 34.4424L2.751 39.567C2.6066 39.6301 2.47604 39.721 2.36677 39.8345C2.2575 39.948 2.17166 40.0819 2.11416 40.2286C2.05666 40.3753 2.02863 40.5319 2.03165 40.6895C2.03468 40.847 2.06871 41.0024 2.1318 41.1468L2.8869 42.8748C2.94996 43.0192 3.04086 43.1498 3.15441 43.2591C3.26795 43.3684 3.40192 43.4543 3.54866 43.5118C3.6954 43.5693 3.85203 43.5973 4.0096 43.5943C4.16717 43.5912 4.3226 43.5571 4.467 43.494L14.6454 39.0471C15.8604 38.5161 16.9119 40.0575 15.9744 40.9953L8.1201 48.8493C8.00866 48.9607 7.92027 49.093 7.85996 49.2386C7.79965 49.3842 7.76861 49.5403 7.76861 49.6979C7.76861 49.8554 7.79965 50.0115 7.85996 50.1571C7.92027 50.3027 8.00866 50.435 8.1201 50.5464L9.4536 51.8799C9.56503 51.9913 9.69732 52.0797 9.84292 52.14C9.98851 52.2004 10.1446 52.2314 10.3022 52.2314C10.4597 52.2314 10.6158 52.2004 10.7614 52.14C10.907 52.0797 11.0393 51.9913 11.1507 51.8799L19.8969 43.1334C20.8215 42.2091 22.3479 43.2195 21.8583 44.4315L17.2245 55.9002C17.1053 56.1953 17.1082 56.5256 17.2325 56.8186C17.3568 57.1115 17.5924 57.3431 17.8875 57.4623L19.6359 58.1688C19.782 58.2278 19.9383 58.2575 20.0959 58.2561C20.2535 58.2547 20.4093 58.2223 20.5543 58.1607C20.6994 58.0991 20.8309 58.0095 20.9413 57.8971C21.0518 57.7847 21.139 57.6516 21.198 57.5055L25.5444 46.7481C26.0385 45.525 27.8574 45.8787 27.8574 47.1975V58.8C27.8574 59.1183 27.9838 59.4235 28.2089 59.6485C28.4339 59.8736 28.7391 60 29.0574 60H30.9429C31.2612 60 31.5664 59.8736 31.7914 59.6485C32.0165 59.4235 32.1429 59.1183 32.1429 58.8V47.1975C32.1429 45.8787 33.9615 45.525 34.4556 46.7481L38.8017 57.5055C38.9209 57.8006 39.1525 58.0363 39.4455 58.1607C39.7385 58.2851 40.069 58.288 40.3641 58.1688L42.1125 57.4623C42.4076 57.3431 42.6432 57.1115 42.7675 56.8186C42.8918 56.5256 42.8947 56.1953 42.7755 55.9002L38.142 44.4315C37.6521 43.2195 39.1785 42.2091 40.1031 43.1334L48.8493 51.8799C48.9607 51.9913 49.093 52.0797 49.2386 52.14C49.3842 52.2004 49.5403 52.2314 49.6979 52.2314C49.8554 52.2314 50.0115 52.2004 50.1571 52.14C50.3027 52.0797 50.435 51.9913 50.5464 51.8799L51.8799 50.5464C51.9913 50.435 52.0797 50.3027 52.14 50.1571C52.2004 50.0115 52.2314 49.8554 52.2314 49.6979C52.2314 49.5403 52.2004 49.3842 52.14 49.2386C52.0797 49.093 51.9913 48.9607 51.8799 48.8493L44.0256 40.9953C43.0881 40.0575 44.1396 38.5161 45.3546 39.0471L55.533 43.494C55.6774 43.5571 55.8328 43.5912 55.9904 43.5943C56.148 43.5973 56.3046 43.5693 56.4513 43.5118C56.5981 43.4543 56.732 43.3684 56.8456 43.2591C56.9591 43.1498 57.05 43.0192 57.1131 42.8748L57.8682 41.1468C57.9955 40.8552 58.0018 40.5249 57.8857 40.2287C57.7696 39.9324 57.5406 39.6944 57.249 39.567L45.5202 34.4424C44.3289 33.9219 44.7003 32.1429 46.0008 32.1429H58.8C59.1183 32.1429 59.4235 32.0165 59.6485 31.7914C59.8736 31.5664 60 31.2612 60 30.9429V29.0571C60 28.7388 59.8736 28.4336 59.6485 28.2086C59.4235 27.9835 59.1183 27.8571 58.8 27.8571H46.0008C44.7003 27.8571 44.3286 26.0781 45.5202 25.5576L57.249 20.433C57.3934 20.3699 57.524 20.279 57.6333 20.1654C57.7425 20.0519 57.8284 19.9179 57.8859 19.7712C57.9434 19.6245 57.9714 19.4679 57.9684 19.3103C57.9653 19.1527 57.9313 18.9973 57.8682 18.8529L57.1131 17.1249C56.9856 16.8333 56.7475 16.6043 56.4512 16.4882C56.1549 16.3722 55.8246 16.3786 55.533 16.506L45.3546 20.9529C44.1396 21.4839 43.0881 19.9425 44.0256 19.0047L51.8799 11.1507C51.9913 11.0393 52.0797 10.907 52.14 10.7614C52.2004 10.6158 52.2314 10.4597 52.2314 10.3022C52.2314 10.1446 52.2004 9.98851 52.14 9.84292C52.0797 9.69732 51.9913 9.56503 51.8799 9.4536L50.5464 8.1201C50.435 8.00866 50.3027 7.92027 50.1571 7.85996C50.0115 7.79965 49.8554 7.76861 49.6979 7.76861C49.5403 7.76861 49.3842 7.79965 49.2386 7.85996C49.093 7.92027 48.9607 8.00866 48.8493 8.1201L40.1031 16.8666C39.1785 17.7906 37.6521 16.7805 38.142 15.5685L42.7755 4.0998C42.8947 3.80473 42.8918 3.47439 42.7675 3.18145C42.6432 2.8885 42.4076 2.65694 42.1125 2.5377L40.3641 1.8312C40.218 1.77213 40.0617 1.74241 39.9041 1.74376C39.7464 1.74511 39.5907 1.7775 39.4456 1.83906C39.3005 1.90063 39.1689 1.99018 39.0585 2.10259C38.948 2.215 38.8607 2.34807 38.8017 2.4942L34.4556 13.2522C33.9615 14.475 32.1429 14.1213 32.1429 12.8022V1.2Z" fill="url(#paint0_linear_2903_147)"/>
</g>
<defs>
<linearGradient id="paint0_linear_2903_147" x1="8.25" y1="5.7" x2="44.7" y2="52.35" gradientUnits="userSpaceOnUse">
<stop stop-color="#007BFF"/>
<stop offset="0.552084" stop-color="#6CA6FF"/>
<stop offset="1" stop-color="#94C1FF"/>
</linearGradient>
<clipPath id="clip0_2903_147">
<rect width="60" height="60" fill="white"/>
</clipPath>
</defs>
</svg>
