<svg width="60" height="60" viewBox="0 0 60 60" fill="none" xmlns="http://www.w3.org/2000/svg">
<path fill-rule="evenodd" clip-rule="evenodd" d="M39.9258 8.25987e-05C39.9258 7.23875e-05 39.9258 5.99055e-05 39.9258 4.97583e-05V4.97583e-05C39.9258 2.7639e-05 39.9258 0 39.9258 0H39.9258H20.6398H20.6398C20.6397 0 20.6397 2.68042e-05 20.6397 4.85016e-05V4.85016e-05C20.6397 5.84074e-05 20.6397 7.08987e-05 20.6397 8.08045e-05L11.5512 16.1643C11.209 16.7731 11.209 17.5163 11.5514 18.125L18.8966 31.1837C19.6612 32.5431 21.6184 32.5431 22.3829 31.1837L29.706 18.1643C30.0602 17.5345 30.7266 17.1447 31.4492 17.1447H46.1466C47.6761 17.1447 48.6395 15.4977 47.8899 14.1645L39.9258 8.25987e-05ZM30.3795 42.8552C30.3795 42.8553 30.3795 42.8553 30.3795 42.8553V42.8553C30.3795 42.8553 30.3794 42.8553 30.3794 42.8553L30.3794 42.8552C30.3794 42.8552 30.3794 42.8552 30.3793 42.8552H14.5122C12.9827 42.8552 12.0192 44.5022 12.7688 45.8354L20.1595 58.9802C20.5137 59.6101 21.1802 60 21.9029 60H40.019C40.0191 60 40.0191 60 40.0191 60V60C40.0191 59.9999 40.0191 59.9999 40.0191 59.9999H40.0192C40.0192 59.9999 40.0192 59.9999 40.0192 59.9999V59.9999C40.0192 60 40.0193 60 40.0193 59.9999L40.0193 59.9999L49.6658 42.8552C49.6658 42.8552 49.6657 42.8551 49.6657 42.8551V42.8551C49.6657 42.8551 49.6656 42.8551 49.6656 42.8551L41.7627 28.8146C40.9979 27.4557 39.0412 27.456 38.2767 28.8151L30.3795 42.8552C30.3795 42.8552 30.3795 42.8552 30.3795 42.8552L30.3795 42.8552Z" fill="url(#paint0_linear_2903_136)"/>
<defs>
<linearGradient id="paint0_linear_2903_136" x1="16.3165" y1="5.7" x2="53.1951" y2="36.1161" gradientUnits="userSpaceOnUse">
<stop stop-color="#007BFF"/>
<stop offset="0.552084" stop-color="#6CA6FF"/>
<stop offset="1" stop-color="#94C1FF"/>
</linearGradient>
</defs>
</svg>
